<svg xmlns="http://www.w3.org/2000/svg" width="1200" height="675" viewBox="0 0 1200 675" role="img" aria-labelledby="title desc">
  <title id="title">Lead Snipper placeholder</title>
  <desc id="desc">Decorative placeholder artwork for the Lead Snipper project card.</desc>
  <defs>
    <linearGradient id="bg" x1="0" y1="0" x2="1" y2="1">
      <stop offset="0%" stop-color="#0b1220" />
      <stop offset="100%" stop-color="#123b6b" />
    </linearGradient>
    <linearGradient id="panel" x1="0" y1="0" x2="1" y2="0">
      <stop offset="0%" stop-color="#38bdf8" stop-opacity="0.9" />
      <stop offset="100%" stop-color="#60a5fa" stop-opacity="0.45" />
    </linearGradient>
  </defs>
  <rect width="1200" height="675" rx="36" fill="url(#bg)" />
  <rect x="72" y="72" width="1056" height="531" rx="28" fill="#08111f" stroke="#38bdf8" stroke-opacity="0.35" />
  <rect x="112" y="124" width="420" height="28" rx="14" fill="#1d4ed8" opacity="0.8" />
  <rect x="112" y="178" width="286" height="16" rx="8" fill="#93c5fd" opacity="0.9" />
  <rect x="112" y="214" width="352" height="16" rx="8" fill="#93c5fd" opacity="0.55" />
  <rect x="112" y="278" width="236" height="180" rx="24" fill="url(#panel)" />
  <rect x="376" y="278" width="318" height="180" rx="24" fill="#0f1c2f" stroke="#60a5fa" stroke-opacity="0.3" />
  <rect x="722" y="278" width="294" height="180" rx="24" fill="#0f1c2f" stroke="#60a5fa" stroke-opacity="0.3" />
  <rect x="112" y="494" width="904" height="18" rx="9" fill="#1e3a5f" />
  <rect x="112" y="530" width="548" height="18" rx="9" fill="#1e3a5f" opacity="0.72" />
  <text x="112" y="402" font-family="Arial, sans-serif" font-size="54" font-weight="700" fill="#ffffff">Lead Snipper</text>
  <text x="112" y="568" font-family="Arial, sans-serif" font-size="28" fill="#cbd5e1">Lead management and follow-up dashboard</text>
</svg>
