<svg xmlns="http://www.w3.org/2000/svg" width="1200" height="675" viewBox="0 0 1200 675" role="img" aria-labelledby="title desc">
  <title id="title">Milk Dairy Screenshot Placeholder</title>
  <desc id="desc">Placeholder image for the Milk Dairy Application.</desc>
  <defs>
    <linearGradient id="bg" x1="0" x2="1" y1="0" y2="1">
      <stop offset="0%" stop-color="#5f8f38"/>
      <stop offset="100%" stop-color="#8ab85f"/>
    </linearGradient>
  </defs>
  <rect width="1200" height="675" fill="url(#bg)"/>
  <rect x="70" y="85" width="1060" height="505" rx="24" fill="#ffffff" fill-opacity="0.93"/>
  <rect x="105" y="130" width="430" height="26" rx="13" fill="#1d7a8c" fill-opacity="0.2"/>
  <rect x="105" y="178" width="640" height="365" rx="14" fill="#f5ecdf"/>
  <rect x="775" y="178" width="320" height="110" rx="14" fill="#f5ecdf"/>
  <rect x="775" y="303" width="320" height="110" rx="14" fill="#f5ecdf"/>
  <rect x="775" y="428" width="320" height="115" rx="14" fill="#f5ecdf"/>
  <rect x="155" y="228" width="180" height="250" rx="20" fill="#ffffff"/>
  <rect x="195" y="190" width="100" height="45" rx="10" fill="#ffffff"/>
  <rect x="362" y="260" width="320" height="40" rx="10" fill="#ffffff"/>
  <rect x="362" y="320" width="240" height="40" rx="10" fill="#ffffff"/>
  <rect x="362" y="380" width="280" height="40" rx="10" fill="#ffffff"/>
  <text x="105" y="96" font-family="Arial, sans-serif" font-size="34" font-weight="700" fill="#ffffff">Milk Dairy Application</text>
</svg>
